<svg xmlns="http://www.w3.org/2000/svg" viewBox="0 0 784.1 1256.1"><path fill="#fff" d="M161 1252c-23-4-159-27-157-87 2-48 17-104 35-125 4-41 5-80 10-129 8-67 16-136 27-204 11-62 17-93 30-111 12-17 32-23 70-35l53-18 3-1 1-3c3-10 17-22 28-22 4 0 7 2 10 5l5 8 5-7c8-13 10-28 11-42l1-9a262 262 0 0 1-111-50c-16-17-16-42-17-65q-2-19-2-39c-3-54 10-128 14-182 2-25-11-29-3-53 17-45 71-46 110-51 43-4 88 0 129 16a203 203 0 0 1 28 14c8 5 8 15 3 20 38 51 21 122 52 176 6 10 13 18 18 28 8 15 9 38-6 49-8 5-15 5-21 4-9 0-16-1-22 21-11 32-27 56-45 74a37 37 0 0 1 0 12l-1 6h1c-1 22 7 42 25 61l7 8 3-11c2-6 6-18 15-18 6 0 13 6 19 14l1 1 4 4c4 4 9 9 9 13l1 4 3 1c27 14 57 16 86 18h2c139 4 147 106 156 214 4 52 8 106 28 148 3 8-1 18-11 29l-2 2v3c7 64 8 137 13 215l-2 1-1-1-5 1c-14 4-24 32-36 35-8 2-17-2-25-6-8-3-16-6-24-5l-18-1h-24v1h-7a12 12 0 0 0-1 2c-1 3 3 8 1 33s-39 23-342 38c-32 0-121-2-134-4Z"/><path fill="#05f" d="M322 1234a11 11 0 0 1-5-7 11 11 0 0 1 0-5 13 13 0 0 1 2-6 12 12 0 0 1 4-3 9 9 0 0 1 4-1 9 9 0 0 1 3 0l1 1h1a10 10 0 0 1 6 7 12 12 0 0 1 0 5 10 10 0 0 1-3 4c0 5-2 7-6 7a13 13 0 0 1-7-2Zm-247-5a13 13 0 0 1-7-10 17 17 0 0 1 2-8 2272 2272 0 0 0 58-431 47 47 0 0 0-2-10 31 31 0 0 0-5-9 2 2 0 0 1 0-3 2 2 0 0 1 2-1 2 2 0 0 1 1 0 36 36 0 0 1 5 9v-31a1 1 0 0 1 1-1 384 384 0 0 1 3 45l1 21v58a558 558 0 0 1-3 57 1263 1263 0 0 1-15 152 2251 2251 0 0 1-30 161 8 8 0 0 1-6 2 11 11 0 0 1-5-1Zm294-2a15 15 0 0 1-3-8l-1-10 1-6v-5a3959 3959 0 0 0-3-168l-5-2a87 87 0 0 1-20-12 4 4 0 0 1-2 1 7 7 0 0 1-3-1 11 11 0 0 1-4-3 22 22 0 0 1-3-5 33 33 0 0 1-2-7l-9-9a35 35 0 0 0-11-8l-3-1c-3 9-6 17-11 24-6 9-15 13-25 15-12 2-23 2-35 2-12 1-25 3-36 0-19-6-32-27-40-44v-1c-9-19-15-106-11-129a5 5 0 0 1 4-3c39-12 84-17 124-7a9 9 0 0 1 0-5c2-5 7-6 11-7h1l17-6c9-3 19-6 28-1a48 48 0 0 1 11 10 250 250 0 0 1 8 10l1 3h3a2 2 0 0 1 0 2c16 4 31 11 43 22 15 14 24 33 35 49 6 10 13 19 21 26a49 49 0 0 0 13 9l1-1c3-3 9-5 13-3h1v1a6 6 0 0 1 8-3c31 18 62 34 94 48l30 13a9 9 0 0 1 3-6 4 4 0 0 1 5-1c-11-13-12-32-13-49v-5c-1-29-3-57-3-86a1186 1186 0 0 1 10 70l2 13c2 18 0 42 16 54a7 7 0 0 1 3 5l17-3 3-1c9-2 19-4 28-4v2c-8 4-17 6-26 8l-28 9a5 5 0 0 1-1 0l3 1 48 20-1 1c-16-3-32-8-48-13l-3-1c-17-5-33-11-50-18a918 918 0 0 1-92-44l1 7 2 16 3 34c-1 14-5 31-17 41a5 5 0 0 1-1 7l11 7 20 14 42 25c27 17 55 32 84 45 28 13 59 28 90 28 14 0 30-4 40-13 9-10 12-24 13-37v-3a551 551 0 0 0-1-85l-9-71 1-1 4-1c3 12 14 87 15 99a348 348 0 0 1 3 55c0 14-1 30-8 43-8 13-21 21-35 25-33 9-66-2-96-15l-3-1-2-1 7 24c1 3-1 7-4 9h-1a7 7 0 0 1-6 0h-1a7 7 0 0 1-1-1 8 8 0 0 1-2-8v-1c1-8 0-17 2-25a1205 1205 0 0 1-133-71l-24-16h-1c-8-5-17-10-22-18a6 6 0 0 1 1-8 8 8 0 0 1-3-6c-12-7-25-10-39-13l-1-1-31-6c2 56 3 114 3 179a18 18 0 0 1-1 7 13 13 0 0 1-3 4 8 8 0 0 1-6 3 7 7 0 0 1-5-2Zm-7-215 19 5v5l39 10c14 3 27 7 39 14 5-3 9-7 12-12 4-8 5-17 5-26v-47a33 33 0 0 1-10-1 5 5 0 0 1-3-3c-9-2-18-6-25-11-15-10-24-28-33-42l-1-1c-10-15-20-28-36-37-16-8-34-12-52-13-7-1-19-1-22 7-1 3-1 11 3 11l2 1a5 5 0 0 1 4 2l9 1 2 1c7 1 16 2 22 7 1 1 0 3-1 3-8 1-17-1-25-1h-11c-4 0-8 2-11 0-10 4-14 18-7 27l9 1 12 2c7 1 16 2 23 5a1 1 0 0 1-1 1c-5 2-11 1-17 1h-6l-18-1a6 6 0 0 1-7 3 3 3 0 0 0-1 1 7 7 0 0 0-1 4l6 12a33 33 0 0 1 3 8h13a95 95 0 0 1 13 2 1 1 0 0 1 0 2 81 81 0 0 1-11 1l-2 1h-12c1 4 1 8 4 10 6 5 15 5 22 8a49 49 0 0 1 15 11 7 7 0 0 1 3-2l16 16a13 13 0 0 1-1 5 56 56 0 0 0 6 6 80 80 0 0 0 13 7v-4Zm260 0h1-1a4 4 0 0 1 0-1ZM210 843a292 292 0 0 0-58 12c-5 35-5 72 7 105 6 16 15 34 29 45 8 7 18 7 28 6h6l27-1c10-1 21-1 28-8 6-6 8-14 10-22l1-1c-8-3-14-9-15-18-1-6-2-10-5-16-3-5-6-10-7-16a19 19 0 0 1 6-15 29 29 0 0 1 15-40 24 24 0 0 1 2-23c-6 0-11-4-13-10h-26a320 320 0 0 0-35 2Zm97-10-13 4-8 3h-1l1 1a27 27 0 0 1 3 4c13-9 32-6 46-3h3c-6-4-12-11-19-12a11 11 0 0 0-2 0c-3 0-7 1-10 3ZM7 1219c-3-1-7-4-7-9a1923 1923 0 0 0 21-133l15-134a8434 8434 0 0 1 28-216l14-77c5-20 10-33 17-43a59 59 0 0 1 11-12 78 78 0 0 1 16-10c11-6 26-11 45-17l54-18a32 32 0 0 1 4-10 47 47 0 0 1 8-9 43 43 0 0 1 11-7 26 26 0 0 1 10-2 16 16 0 0 1 8 2 19 19 0 0 1 7 7c10-17 11-36 13-55v-2c-23-4-41-12-65-25-32-17-37-26-51-48s-14-26-13-63l1-22c-7-8-12-19-15-33a8 8 0 0 1-1-3c-5-5-15-7-13-17 1-9 13-9 20-15a47 47 0 0 1 3-5s0-2 2-2a37 37 0 0 1 18-11 400 400 0 0 1 5-23c-6-1-10-4-10-9l-2-9c-17 2-35 6-44-8a23 23 0 0 1-3-16c-11-2-30-24-28-46s17-39 24-46c5-5 0-36 32-54 22-12 48-11 68-10l22-1c94-18 109-4 171 17 33 11 61 62 88 81a39 39 0 0 1 14-1 29 29 0 0 1 19 8c7 8 7 17 2 25a15 15 0 0 1 3 2c5 5 5 21 1 27-3 6-3 20-1 22a72 72 0 0 1 6 10 74 74 0 0 1 5 12c7 22-10 53-15 75v2l-4 18c18 19 16 53-12 65a55 55 0 0 1-21 6 47 47 0 0 1-12-1 15 15 0 0 1-6-2c-2 15-9 30-19 44a125 125 0 0 1-18 23 42 42 0 0 1-13 8c-4 25 3 49 22 71 2-8 5-14 9-18a18 18 0 0 1 6-4 15 15 0 0 1 6-2 18 18 0 0 1 6 1 27 27 0 0 1 6 4 50 50 0 0 1 13 12l3 4a75 75 0 0 1 8 9c2 3 4 6 4 10 11 5 23 9 37 12s28 4 40 5h8a229 229 0 0 1 27 3 178 178 0 0 1 23 5 147 147 0 0 1 21 8 130 130 0 0 1 18 10 124 124 0 0 1 15 12 130 130 0 0 1 13 14 146 146 0 0 1 11 16 175 175 0 0 1 9 18 217 217 0 0 1 13 39 407 407 0 0 1 8 44c4 29 6 61 8 92l4 54 6 50a57 57 0 0 0 6 6 55 55 0 0 1 5 5 20 20 0 0 1 3 7 12 12 0 0 1 0 7 28 28 0 0 1-3 7l-11 15c-5 6-10 13-12 18l-1 3a3 3 0 0 1-4 2 5 5 0 0 1-3-1 5 5 0 0 1-1-5v-5c2-13 2-13 8-17a107 107 0 0 0 9-8 29 29 0 0 0 7-5 11 11 0 0 0 2-5c1-4 0-8-4-13-1 2-2 3-4 3l-4-2a32 32 0 0 1-3-7 162 162 0 0 1-6-16l-3-7a283 283 0 0 1-6-42c-2-14-2-29-3-43v-13c0-29-2-56-5-81a333 333 0 0 0-8-39 235 235 0 0 0-13-36 166 166 0 0 0-19-31 135 135 0 0 0-12-14 123 123 0 0 0-13-11 119 119 0 0 0-16-10 123 123 0 0 0-17-7 137 137 0 0 0-20-5 160 160 0 0 0-21-3l-5-1c-16-2-31-4-46-8a86 86 0 0 1-22-3 107 107 0 0 1-21-8 307 307 0 0 1-7 34l-10 35-10 36-8 30c-7 25-15 51-24 76l-1 1a17 17 0 0 1-4 1l1-1a5 5 0 0 1-5 2 4 4 0 0 1-3-1l-45-61h-1l-34-45a2519 2519 0 0 1 24 192l-19-7c-3-44-6-90-11-141l-1-11-1-18-1-19c-1-7-2-11-5-14a19 19 0 0 1-3 0 22 22 0 0 1-10-2l-54 81-28 43a6 6 0 0 1-5 3 6 6 0 0 1-4-1 7 7 0 0 1-2-5l-5-92-4-78c-1-13 0-23 2-32a77 77 0 0 1-12 10 103 103 0 0 1-14 7l-29 10c-10 3-22 6-32 11a92 92 0 0 0-14 8 72 72 0 0 0-13 11 59 59 0 0 0-9 15 106 106 0 0 0-5 16 1263 1263 0 0 0-23 139c-6 46-10 94-14 140a5412 5412 0 0 1-29 249 116 116 0 0 0-2 14c-1 8-2 18-5 25a30 30 0 0 1-4 9 10 10 0 0 1-3 3 7 7 0 0 1-3 1 8 8 0 0 1-2 0Zm429-466Zm-21-177a374 374 0 0 1-71 53l2 3 2 4 35 46 46 62 20-65 22-69a606 606 0 0 0 15-70c-4-3-7-8-10-13a102 102 0 0 0-8-12 21 21 0 0 0-5-4 9 9 0 0 0-4-2c-5 0-10 4-15 13l5 5 4 4a1 1 0 0 1 0 1 1 1 0 0 1 0 1 8 8 0 0 1 0 7 17 17 0 0 1-4 5v1a31 31 0 0 0-4 3 35 35 0 0 1-4 4 7 7 0 0 1-4 2 5 5 0 0 1-1 0l-21 21Zm-167-36a20 20 0 0 0-7 5c-4 5-7 11-8 20a102 102 0 0 0-1 25l3 70 3 75 16-23h1l59-84-40-38-27-27a6 6 0 0 1-4-3 5 5 0 0 1 0-5c2-4 6-6 10-8 3-2 7-4 10-8a34 34 0 0 0-6-1 23 23 0 0 0-9 2Zm91 79a543 543 0 0 0 53-35 617 617 0 0 0 48-42 110 110 0 0 1-15-16 106 106 0 0 1-11-20 88 88 0 0 1-6-23 71 71 0 0 1 1-22 63 63 0 0 1 3-10 16 16 0 0 1-10-3c-4-3-3-7 0-10 7-4 14-7 20-12a250 250 0 0 0 18-19l22-29 6-8h-1v-2c-2-2 0-6 4-6l1-1h-1a10 10 0 0 1 5-1 27 27 0 0 1 5 1 36 36 0 0 0 8 0 33 33 0 0 0 15-4c11-7 13-20 11-30a33 33 0 0 0-3-8 23 23 0 0 1-5 3 20 20 0 0 0 4-4c-3-6-9-11-17-14a35 35 0 0 0-16-3v1l-4 5-1 1a7 7 0 0 1-9 0v1a25 25 0 0 1-2-2 25 25 0 0 0-3 2h-1a24 24 0 0 1 3-4 11 11 0 0 1-3-6v-12l-30 1h-38c-4 6-11 11-18 11-7 65-101 54-105-3-3-6-8-12-14-16a32 32 0 0 1-8-2 18 18 0 0 0-13 4 101 101 0 0 1-3 13 28 28 0 0 1 8-3c5-1 6 4 4 6-7 4-19 15-11 26 10 10 24-1 30-6 7-4 14 6 8 11-29 21-48 6-50-11a38 38 0 0 1-46 12l-2 34c-1 8 8 40 36 64s60 31 73 33c16 3 34 5 50 4 6 0 12-1 17-3 5-3 8-6 10-10h1c2-4 8-4 9 0 3 12-9 19-20 23a81 81 0 0 1-23 3l-18-1h-2l-14-2c1 12 2 28-2 43a75 75 0 0 1-9 23 58 58 0 0 1-17 18l42 43 17 16a20 20 0 0 1 9-3 12 12 0 0 1 10 4Zm-60-327c6 65 107 49 79-16a64 64 0 0 0-46-24c-19 0-34 12-33 40Zm-101-19-1 6-4 40c19 10 36 0 45-22 4-14-3-29-12-41a103 103 0 0 1-23-1 8 8 0 0 1-3-2l-2 20Zm-28-13a60 60 0 0 0-1 8 66 66 0 0 0 4 23v1a83 83 0 0 0 4 8l1-7 7-49a32 32 0 0 0-15 16Zm166-48 2 1a81 81 0 0 1 19 10 73 73 0 0 1 16 15c3 5 7 11 6 16 9 8 17 18 28 24h42l29-1v-13c0-6 1-13-1-20 0-4-3-4-7-5l-5-1c-11-2-22-5-25-16-3-12 5-23 5-35 1-10-4-20-11-28l-20 5-28 6-55 8a590 590 0 0 1-112 3l-16-2v2l1 13a11 11 0 0 1 0 4v1a6 6 0 0 1-1 3l-1 26a54 54 0 0 1 28 11l21 2h5c5-1 10-1 14 1a2 2 0 0 1 1 3c-3 3-8 5-13 6l-2 1a110 110 0 0 1-12 2 39 39 0 0 1 6 10c13-2 29-2 41 4 10-26 36-34 59-28l-7-4a73 73 0 0 0-18-5c-5 0-10 0-13-6a11 11 0 0 1 1-13 12 12 0 0 1 9-3c5 0 10 2 14 3Zm15 878a27 27 0 0 1-5-5 18 18 0 0 1-3-4 14 14 0 0 1-1-5 12 12 0 0 1 0-4 10 10 0 0 1 3-5 7 7 0 0 1 5-1 9 9 0 0 1 6 3 8 8 0 0 1 5 6 32 32 0 0 1 1 8v2a6 6 0 0 1-2 6 6 6 0 0 1-4 2 5 5 0 0 1-5-3Zm412-8c1-2-9-11-10-13l-2-1a276 276 0 0 0-26-25c-4-4-10-7-12-13a4 4 0 0 1 5-6c7 0 13 7 18 12l2 2a166 166 0 0 1 15 17c5 6 10 12 13 19 2 4 2 8-2 9a1 1 0 0 1-1-1ZM364 959a10 10 0 0 1-3 0 4 4 0 0 1-4-4 18 18 0 0 1 1-6l1-2a57 57 0 0 0 0-8c1-7 3-11 7-17 3-5 3-10 4-16 1-4 4-7 8-8 2 0 2 2 2 3-3 5 2 12 1 17a25 25 0 0 1-2 8l-4 8c-2 5 0 11-1 16-2 5-5 9-10 9Zm-44-198a8 8 0 0 1-2-5 38 38 0 0 1-1-7 12 12 0 0 1 2-7 7 7 0 0 1 5-2l-1-1-1-1a3 3 0 0 1 2-2 9 9 0 0 1 3-1 10 10 0 0 1 7 3c2 2 3 5 4 9a9 9 0 0 1 0 5 14 14 0 0 1-3 4c-3 4-7 6-11 6a6 6 0 0 1-4-1Zm-70-350a41 41 0 0 1-19-11 8 8 0 0 1-2-6 9 9 0 0 1 3-6 8 8 0 0 1 5-2 8 8 0 0 1 6 2v1a27 27 0 0 0 11 7 22 22 0 0 0 13 0c8-1 13-7 18-13l2-3a4 4 0 0 1 2-2 4 4 0 0 1 2 0 4 4 0 0 1 2 1 4 4 0 0 1 1 3c1 6-2 12-6 17a38 38 0 0 1-17 12 36 36 0 0 1-11 1 39 39 0 0 1-10-1Zm203-77c6-7 17-11 26-12a34 34 0 0 1 25 6l-1 1c-7-1-15 1-21 3-8 3-11 7-17 11a7 7 0 0 1-4 1c-6 0-11-5-8-10Zm-147-28a42 42 0 0 1-4-26c2-11 17-8 18 2 0 7 2 11 1 21a8 8 0 0 1-9 7c-2 0-5-1-6-4Zm-120-6c-4-8-7-25 5-28 4-1 7 1 9 4a9 9 0 0 1 1 1c6 6 4 19-2 25a7 7 0 0 1-5 2 8 8 0 0 1-8-4Z"/><path fill="#05f" d="M516 1232a29 29 0 0 1 9-10 24 24 0 0 1 6-3 24 24 0 0 1 7-1 27 27 0 0 1 7 1 4 4 0 0 1 2 1 4 4 0 0 1 1 3 3 3 0 0 1-2 2 59 59 0 0 0-9 2 30 30 0 0 0-9 4l-12 1Zm111-8a13 13 0 0 0 0-11 12 12 0 0 0-5-5 14 14 0 0 0-7-1c-6 0-13 3-18 5h-1a6 6 0 0 1-2 1 6 6 0 0 1-5-3 2 2 0 0 1-1-2v-1a7 7 0 0 1 0-3c0-4 0-9-3-14a13 13 0 0 0-12-7 12 12 0 0 0-7 4 17 17 0 0 0-4 7c-2 6-1 12-1 16v2a5 5 0 0 1-2 4 7 7 0 0 1-5 1 8 8 0 0 1-4-1 6 6 0 0 1-3-5 60 60 0 0 1 3-19 31 31 0 0 1 7-12 23 23 0 0 1 8-5 23 23 0 0 1 8-2 25 25 0 0 1 10 2 26 26 0 0 1 9 6 22 22 0 0 1 4 8 22 22 0 0 1 2 9 50 50 0 0 1 15-3c8 0 15 3 19 8a23 23 0 0 1 5 9 26 26 0 0 1 1 10l-11 2Zm-320 19a32 32 0 0 1-13-3 30 30 0 0 1-11-8 24 24 0 0 1-5-9 26 26 0 0 1 0-12 4 4 0 0 1 4-3 3 3 0 0 1 3 2 46 46 0 0 0 4 14c3 6 8 9 13 9a78 78 0 0 0 8-1 14 14 0 0 0 6-5 13 13 0 0 0 2-7c1-4-1-9-2-13v-1l-1-1a5 5 0 0 1 1-5 8 8 0 0 1 6-2 8 8 0 0 1 2 0 2 2 0 0 1 1 0 38 38 0 0 0 12 2 17 17 0 0 0 11-3v-1a14 14 0 0 0 4-6 12 12 0 0 0-1-9 17 17 0 0 0-6-5c-5-3-11-4-16-5l-1-1a5 5 0 0 1-4-4 8 8 0 0 1 4-8 34 34 0 0 0 3-5 22 22 0 0 0 2-7 12 12 0 0 0-6-12 12 12 0 0 0-5-1c-8 0-15 9-18 15h-1v1a5 5 0 0 1-4 2 7 7 0 0 1-4-2 7 7 0 0 1-3-3 37 37 0 0 0-6-12 20 20 0 0 0-5-4 13 13 0 0 0-7-2 15 15 0 0 0-6 2 12 12 0 0 0-5 6 17 17 0 0 0 0 8l5 15 1 1v1a5 5 0 0 1 0 4 7 7 0 0 1-2 3 2 2 0 0 1-2 1h-1a8 8 0 0 1-2 0 7 7 0 0 1-1 0c-4 0-9 1-14 4a13 13 0 0 0-6 12 13 13 0 0 0 3 6 13 13 0 0 0 4 3c3 2 7 2 13 2h9a5 5 0 0 1 4 2 7 7 0 0 1 2 4 8 8 0 0 1-1 5 6 6 0 0 1-5 2h-5a53 53 0 0 1-15-2 30 30 0 0 1-11-5 23 23 0 0 1-6-8 23 23 0 0 1-2-9 26 26 0 0 1 2-10 26 26 0 0 1 5-9 22 22 0 0 1 7-4 22 22 0 0 1 9-2l-3-19a25 25 0 0 1 4-13 22 22 0 0 1 4-4 23 23 0 0 1 5-3 25 25 0 0 1 11-3 26 26 0 0 1 7 1 23 23 0 0 1 7 4 22 22 0 0 1 9 13c7-9 15-13 23-13a21 21 0 0 1 13 5 24 24 0 0 1 6 7 23 23 0 0 1 3 9 20 20 0 0 1-1 8 20 20 0 0 1-5 7c8 3 13 6 17 10a25 25 0 0 1 8 12 22 22 0 0 1 1 6 23 23 0 0 1-1 5 26 26 0 0 1-5 10 24 24 0 0 1-18 9 22 22 0 0 1-9-2 42 42 0 0 1 0 16 24 24 0 0 1-5 10c-4 5-11 8-18 8Zm409-56a14 14 0 0 1-11-5 14 14 0 0 1-3-8 14 14 0 0 1 3-9 13 13 0 0 1 7-4 13 13 0 0 1 2-1h1a9 9 0 0 1 7 4 1 1 0 0 1 1 1 12 12 0 0 1 4 5 12 12 0 0 1 1 5 13 13 0 0 1-1 4 13 13 0 0 1-2 4 12 12 0 0 1-4 3 13 13 0 0 1-5 1Zm-1-19a7 7 0 0 0-4 1l-3 4a11 11 0 0 0 1 5c1 2 2 2 3 2a12 12 0 0 0 2 0h2a9 9 0 0 0 1-1 5 5 0 0 0 3-1 5 5 0 0 0 1-3l-2-7a10 10 0 0 0-4 0Zm44 13a56 56 0 0 0-8-7 2 2 0 0 1 0-2 4 4 0 0 1 3-3 5 5 0 0 1 2 0 25 25 0 0 1 11 6l-8 6Zm-94-1-10-2a20 20 0 0 1 2-7 22 22 0 0 1 4-6c4-4 10-8 18-10a22 22 0 0 1-8-10 23 23 0 0 1 0-12 26 26 0 0 1 5-12 23 23 0 0 1 11-7 22 22 0 0 1 7-1 28 28 0 0 1 12 3 49 49 0 0 1 13 10 22 22 0 0 1 4-6 22 22 0 0 1 5-4 25 25 0 0 1 12-3 26 26 0 0 1 12 3 22 22 0 0 1 9 8 24 24 0 0 1 3 7 30 30 0 0 1 0 8c0 7-3 14-7 22a6 6 0 0 1-5 3 8 8 0 0 1-7-3 5 5 0 0 1 0-6l1-1c2-4 5-9 6-15a17 17 0 0 0 0-8 12 12 0 0 0-5-6 14 14 0 0 0-6-2 15 15 0 0 0-10 4 33 33 0 0 0-7 8 7 7 0 0 1-1 3v1a2 2 0 0 1-2 1 7 7 0 0 1-4 1 5 5 0 0 1-4-1v-1c-5-6-12-15-21-15a12 12 0 0 0-6 2 13 13 0 0 0-5 10 20 20 0 0 0 3 10 39 39 0 0 0 6 8 7 7 0 0 1 2 3 7 7 0 0 1 0 4 5 5 0 0 1-3 4h-2l-14 4a16 16 0 0 0-6 4 11 11 0 0 0-2 7Zm-365 10a12 12 0 0 1-9-4 12 12 0 0 1-3-7 10 10 0 0 1-2-4 9 9 0 0 1 2-5 13 13 0 0 1 8-6 13 13 0 0 1 3-1 15 15 0 0 1 7 2 13 13 0 0 1 6 6 13 13 0 0 1 1 8 14 14 0 0 1-3 7 13 13 0 0 1-2 1 13 13 0 0 1-8 3Zm0-20a7 7 0 0 0-3 1 8 8 0 0 0-2 1 8 8 0 0 0-2 6l5 4a6 6 0 0 0 2 1c2 0 3-1 4-3l1-1c2-3 3-4 0-6-2-2-3-3-5-3Zm180-13a23 23 0 0 1-9-2 26 26 0 0 1-7-5 26 26 0 0 1-5-6 23 23 0 0 1-2-7 22 22 0 0 1 2-14 54 54 0 0 1-7 0 34 34 0 0 1-12-2 22 22 0 0 1-9-6c-4-4-6-11-5-18a32 32 0 0 1 2-10 31 31 0 0 1 6-9 26 26 0 0 1 8-6 24 24 0 0 1 10-2 27 27 0 0 1 7 1 4 4 0 0 1 2 1 4 4 0 0 1 1 3 3 3 0 0 1-2 2 46 46 0 0 0-14 4c-6 3-9 7-10 13a73 73 0 0 0 1 8c2 6 6 9 13 9a51 51 0 0 0 12-2l1-1a6 6 0 0 1 1 0 5 5 0 0 1 4 2 8 8 0 0 1 2 7 2 2 0 0 1 0 1 38 38 0 0 0-3 12 17 17 0 0 0 3 11h1l-1 1a14 14 0 0 0 7 4 14 14 0 0 0 2 0 12 12 0 0 0 7-2 19 19 0 0 0 5-6c3-4 5-10 6-14v-1a5 5 0 0 1 5-4 8 8 0 0 1 4 1 7 7 0 0 1 3 3c3 2 9 6 14 6a12 12 0 0 0 10-5 11 11 0 0 0 2-7 16 16 0 0 0-3-7l-11-10v-1h-1a5 5 0 0 1-2-5 7 7 0 0 1 2-4 7 7 0 0 1 4-2 39 39 0 0 0 9-4 20 20 0 0 0 8-8 13 13 0 0 0 0-11 12 12 0 0 0-5-5 14 14 0 0 0-7-1c-6 0-13 3-18 5h-1a6 6 0 0 1-2 1 6 6 0 0 1-5-3 2 2 0 0 1-1-2v-1a7 7 0 0 1 0-3c0-4 0-9-3-14a13 13 0 0 0-12-7 12 12 0 0 0-7 4 17 17 0 0 0-4 7c-2 6-1 12-1 16v2a5 5 0 0 1-2 4 7 7 0 0 1-5 1 8 8 0 0 1-4-1 6 6 0 0 1-3-5 59 59 0 0 1 3-19 31 31 0 0 1 7-12 22 22 0 0 1 8-5 23 23 0 0 1 8-2 25 25 0 0 1 10 2 26 26 0 0 1 9 6 23 23 0 0 1 4 8 22 22 0 0 1 2 9 50 50 0 0 1 15-3 30 30 0 0 1 10 2 23 23 0 0 1 8 5 24 24 0 0 1 7 15 26 26 0 0 1-1 8 24 24 0 0 1-3 8 22 22 0 0 1-6 6 22 22 0 0 1-8 3 45 45 0 0 1 8 11 26 26 0 0 1 3 10 21 21 0 0 1-1 9 21 21 0 0 1-5 7 24 24 0 0 1-8 6 23 23 0 0 1-9 2 20 20 0 0 1-7-2 20 20 0 0 1-7-4c-4 8-8 14-13 18a25 25 0 0 1-7 4 22 22 0 0 1-8 2Zm-350-4a23 23 0 0 1-9-2 26 26 0 0 1-7-5 26 26 0 0 1-5-6 24 24 0 0 1-2-7 22 22 0 0 1 2-14 54 54 0 0 1-7 0 34 34 0 0 1-12-2 22 22 0 0 1-9-6c-4-4-6-11-5-18a32 32 0 0 1 2-10 31 31 0 0 1 6-9 26 26 0 0 1 8-6 24 24 0 0 1 10-2 27 27 0 0 1 7 1 4 4 0 0 1 2 1 4 4 0 0 1 1 3 3 3 0 0 1-2 2 46 46 0 0 0-14 4c-6 3-9 7-10 13a73 73 0 0 0 1 8c2 6 6 9 13 9a51 51 0 0 0 12-2l1-1a6 6 0 0 1 1 0 5 5 0 0 1 4 2 8 8 0 0 1 2 7 2 2 0 0 1 0 1 38 38 0 0 0-3 12c0 4 1 8 3 11h1-1v1a14 14 0 0 0 7 4 14 14 0 0 0 2 0 12 12 0 0 0 7-2 19 19 0 0 0 5-6 496 496 0 0 1 6-15 5 5 0 0 1 5-4 8 8 0 0 1 4 1 7 7 0 0 1 3 3c3 2 9 6 14 6a12 12 0 0 0 10-5 11 11 0 0 0 2-7 15 15 0 0 0-3-7l-11-10v-1h-1a5 5 0 0 1-2-5 7 7 0 0 1 2-4 7 7 0 0 1 4-2 39 39 0 0 0 9-4 20 20 0 0 0 8-8 13 13 0 0 0 0-11 12 12 0 0 0-5-5 14 14 0 0 0-7-1c-6 0-13 3-18 5h-1a6 6 0 0 1-2 1 6 6 0 0 1-5-3 2 2 0 0 1-1-2v-1a7 7 0 0 1 0-3c0-4 0-10-3-14a13 13 0 0 0-12-7 12 12 0 0 0-7 4 17 17 0 0 0-4 7c-2 6-1 12-1 16v2a5 5 0 0 1-2 4 7 7 0 0 1-5 1 8 8 0 0 1-4-1 6 6 0 0 1-3-5 59 59 0 0 1 3-19 31 31 0 0 1 7-12 23 23 0 0 1 8-5 23 23 0 0 1 8-2 25 25 0 0 1 10 2 26 26 0 0 1 9 6 23 23 0 0 1 4 8 22 22 0 0 1 2 9 50 50 0 0 1 15-3 30 30 0 0 1 10 2 23 23 0 0 1 8 5 24 24 0 0 1 7 15 26 26 0 0 1-1 8 24 24 0 0 1-3 8 22 22 0 0 1-6 6 22 22 0 0 1-8 3 44 44 0 0 1 8 11 26 26 0 0 1 3 10 21 21 0 0 1-1 9 21 21 0 0 1-5 7 24 24 0 0 1-8 6 23 23 0 0 1-9 2 20 20 0 0 1-7-2 20 20 0 0 1-7-4c-4 8-8 14-13 18a25 25 0 0 1-7 4 22 22 0 0 1-8 2Zm362-46a14 14 0 0 1-9-3 13 13 0 0 1-2-2 12 12 0 0 1-2-4 13 13 0 0 1 0-5 13 13 0 0 1 1-4 12 12 0 0 1 3-4 12 12 0 0 1 7-3 10 10 0 0 1 5-1 9 9 0 0 1 5 2 13 13 0 0 1 5 8 14 14 0 0 1-1 9 14 14 0 0 1-7 6 13 13 0 0 1-5 1Zm0-20c-3 1-4 3-5 5-1 3-1 5 2 6l1 2 3 1a5 5 0 0 0 3-1 11 11 0 0 0 3-4v-4a8 8 0 0 0-2-2 8 8 0 0 0-5-3Zm-350 16a14 14 0 0 1-9-3 12 12 0 0 1-2-2 12 12 0 0 1-2-4 13 13 0 0 1 0-5 13 13 0 0 1 1-4 12 12 0 0 1 3-4 12 12 0 0 1 7-3 10 10 0 0 1 5-1 9 9 0 0 1 5 2 13 13 0 0 1 5 8 14 14 0 0 1-1 9 14 14 0 0 1-7 6 13 13 0 0 1-5 1Zm0-20c-3 1-4 3-5 5-1 3-1 5 2 6l1 2 3 1a5 5 0 0 0 3-1 11 11 0 0 0 3-4v-4a8 8 0 0 0-2-2 8 8 0 0 0-5-3Zm617-53a23 23 0 0 1-17-8 27 27 0 0 1-6-11 49 49 0 0 1-1-18 20 20 0 0 1-6 1 20 20 0 0 1-7-1 22 22 0 0 1-6-4 24 24 0 0 1-8-12 21 21 0 0 1 0-8 21 21 0 0 1 3-9 26 26 0 0 1 7-7 44 44 0 0 1 13-6 22 22 0 0 1-8-10 23 23 0 0 1 0-12 26 26 0 0 1 5-12 23 23 0 0 1 11-7 22 22 0 0 1 7-1 27 27 0 0 1 10 2 43 43 0 0 1 11 7l7 18a3 3 0 0 1-1 0 7 7 0 0 1-4 1 5 5 0 0 1-4-1v-1c-5-6-12-15-21-15a12 12 0 0 0-6 2 13 13 0 0 0-5 9 20 20 0 0 0 3 11 39 39 0 0 0 6 8 7 7 0 0 1 2 3 7 7 0 0 1 0 4 5 5 0 0 1-3 4h-2l-14 4a16 16 0 0 0-6 5 11 11 0 0 0-2 7 12 12 0 0 0 6 9 19 19 0 0 0 9 2 34 34 0 0 0 7 0 7 7 0 0 1 4-1 8 8 0 0 1 5 2 5 5 0 0 1 1 4v1l-2 17a17 17 0 0 0 3 7 12 12 0 0 0 7 5 17 17 0 0 0 2 0 13 13 0 0 0 5-1h1a13 13 0 0 0 1-1l1 11a26 26 0 0 1-8 2Zm4-51a13 13 0 0 1-6-5 14 14 0 0 1-3-8 14 14 0 0 1 3-9 13 13 0 0 1 7-4 13 13 0 0 1 2-1h1a9 9 0 0 1 5 2 58 58 0 0 1-4 6 8 8 0 0 0-1 0 7 7 0 0 0-4 1l-3 4a11 11 0 0 0 1 5 6 6 0 0 0 1 2l1 7ZM42 968a1361 1361 0 0 1 3-28 8 8 0 0 1 3-4 6 6 0 0 1 4-2 5 5 0 0 1 3 1l1 1a61 61 0 0 0 8 7l9 3a11 11 0 0 0 4-1 15 15 0 0 0 5-3 75 75 0 0 0 4-7c2-5 1-10-3-15a46 46 0 0 0-11-11 2 2 0 0 1 0-2 4 4 0 0 1 3-3 5 5 0 0 1 2 0 26 26 0 0 1 9 5 24 24 0 0 1 6 7 30 30 0 0 1 4 18 30 30 0 0 1-7 16 21 21 0 0 1-16 8c-7 0-13-3-21-8a22 22 0 0 1-2 11 23 23 0 0 1-8 7Zm497-7a23 23 0 0 1-9-2 25 25 0 0 1-7-5 26 26 0 0 1-5-6 23 23 0 0 1-2-7 22 22 0 0 1 2-14 54 54 0 0 1-7 0 34 34 0 0 1-12-2 22 22 0 0 1-9-6c-4-4-6-11-5-18a32 32 0 0 1 2-10 31 31 0 0 1 6-9 26 26 0 0 1 8-6 24 24 0 0 1 10-2 27 27 0 0 1 7 1 4 4 0 0 1 2 1 4 4 0 0 1 1 3 3 3 0 0 1-2 2 46 46 0 0 0-14 4c-6 3-9 7-10 13a75 75 0 0 0 1 8c2 6 6 9 13 9a51 51 0 0 0 12-2l1-1a6 6 0 0 1 1 0 5 5 0 0 1 4 2 8 8 0 0 1 2 7 2 2 0 0 1 0 1 38 38 0 0 0-3 12c0 4 1 8 3 11h1-1v1a14 14 0 0 0 7 4 14 14 0 0 0 2 0 12 12 0 0 0 7-2 19 19 0 0 0 5-6c3-4 5-10 6-14v-1a5 5 0 0 1 5-4 8 8 0 0 1 4 1 7 7 0 0 1 3 3c3 2 9 6 14 6a12 12 0 0 0 10-5 11 11 0 0 0 2-7 16 16 0 0 0-3-7l-11-10v-1h-1a5 5 0 0 1-2-5 7 7 0 0 1 2-4 7 7 0 0 1 4-2 39 39 0 0 0 9-4 20 20 0 0 0 8-8 13 13 0 0 0 0-11 12 12 0 0 0-5-5 14 14 0 0 0-7-1c-6 0-13 3-18 5h-1a6 6 0 0 1-2 1 6 6 0 0 1-5-3 2 2 0 0 1-1-2v-1a7 7 0 0 1 0-3c0-4 0-9-3-14a13 13 0 0 0-12-7 12 12 0 0 0-7 4 17 17 0 0 0-4 7c-2 6-1 12-1 16v2a5 5 0 0 1-2 4 7 7 0 0 1-5 1 8 8 0 0 1-4-1 6 6 0 0 1-3-5 59 59 0 0 1 3-19 31 31 0 0 1 7-12 22 22 0 0 1 8-5 23 23 0 0 1 8-2 25 25 0 0 1 10 2 26 26 0 0 1 9 6 23 23 0 0 1 4 8 22 22 0 0 1 2 9 50 50 0 0 1 15-3 30 30 0 0 1 10 2 23 23 0 0 1 8 5 24 24 0 0 1 7 15 26 26 0 0 1-1 8 24 24 0 0 1-3 8 22 22 0 0 1-6 6 23 23 0 0 1-8 3 44 44 0 0 1 8 11 26 26 0 0 1 3 10 21 21 0 0 1-1 9 21 21 0 0 1-5 7 24 24 0 0 1-8 6 23 23 0 0 1-9 2 20 20 0 0 1-7-2 20 20 0 0 1-7-4c-4 8-8 14-13 18a25 25 0 0 1-7 4 22 22 0 0 1-8 2ZM48 916v-1l1-9a12 12 0 0 1 0 5 14 14 0 0 1-1 5Zm503-5a14 14 0 0 1-9-3 13 13 0 0 1-2-2 12 12 0 0 1-2-4 13 13 0 0 1 0-5 13 13 0 0 1 1-4 12 12 0 0 1 3-4 12 12 0 0 1 7-3 10 10 0 0 1 5-1 9 9 0 0 1 5 2 13 13 0 0 1 5 8 14 14 0 0 1-1 9 14 14 0 0 1-7 6 13 13 0 0 1-5 1Zm0-20c-3 1-4 3-5 5-1 3-1 5 2 6l1 2 3 1a5 5 0 0 0 3-1 11 11 0 0 0 3-4v-4a8 8 0 0 0-2-2 8 8 0 0 0-5-3Zm-478 8a8 8 0 0 1-7-3 5 5 0 0 1 0-6l1-1c2-4 5-9 6-15a17 17 0 0 0 0-8 12 12 0 0 0-5-6 14 14 0 0 0-6-2 14 14 0 0 0-8 3l1-13a26 26 0 0 1 6 0 26 26 0 0 1 12 3 22 22 0 0 1 9 8 23 23 0 0 1 3 7 30 30 0 0 1 0 8c0 7-3 14-7 22a6 6 0 0 1-5 3Zm334-33a27 27 0 0 1-10-2 26 26 0 0 1-8-5 31 31 0 0 1-7-10 46 46 0 0 1-4-13 20 20 0 0 1-12 3 26 26 0 0 1-9-2 32 32 0 0 1-8-4 32 32 0 0 1-7-7 26 26 0 0 1-4-9 21 21 0 0 1 0-7 20 20 0 0 1 2-8c3-5 8-9 15-13a24 24 0 0 1-10-16 20 20 0 0 1 3-15 17 17 0 0 1 6-5 19 19 0 0 1 9-2 31 31 0 0 1 11 2 57 57 0 0 1 13 7 18 18 0 0 1 4-13c4-5 10-7 16-7a29 29 0 0 1 17 6 28 28 0 0 1 5 5 31 31 0 0 1 5 7 43 43 0 0 1 3 20 23 23 0 0 1 3-1 25 25 0 0 1 10 3 31 31 0 0 1 9 6 32 32 0 0 1 7 8 24 24 0 0 1 2 10 18 18 0 0 1-7 15 31 31 0 0 1-10 6 62 62 0 0 1-15 3 7 7 0 0 1-5-3 9 9 0 0 1-3-5 5 5 0 0 1 1-3 4 4 0 0 1 3-2h2a77 77 0 0 0 11-2 26 26 0 0 0 6-1 13 13 0 0 0 4-4 10 10 0 0 0 2-8c-1-5-6-13-21-13h-3a7 7 0 0 1-2 1 9 9 0 0 1-1 0 26 26 0 0 0-1 0 3 3 0 0 1-2-1 8 8 0 0 1-3-3 6 6 0 0 1-2-4l1-1 1-15a18 18 0 0 0-3-8 16 16 0 0 0-7-5 18 18 0 0 0-5-1 12 12 0 0 0-7 2 14 14 0 0 0-4 5 30 30 0 0 0-3 12 6 6 0 0 1-2 4 6 6 0 0 1-4 2 6 6 0 0 1-3-1l-1-1a88 88 0 0 0-10-8 32 32 0 0 0-6-3 16 16 0 0 0-6-1 10 10 0 0 0-6 2 10 10 0 0 0-3 8 17 17 0 0 0 4 8 40 40 0 0 0 6 8 9 9 0 0 1 6 7 4 4 0 0 1-2 4l-2 1a66 66 0 0 0-9 4c-4 3-7 5-8 8a11 11 0 0 0 1 9 18 18 0 0 0 6 6 18 18 0 0 0 9 2 32 32 0 0 0 14-4 2 2 0 0 1 1 0 8 8 0 0 1 3 0 9 9 0 0 1 5 1 6 6 0 0 1 3 5v1c0 5 0 10 2 14a15 15 0 0 0 4 6 17 17 0 0 0 7 4 63 63 0 0 0 9 0c5-1 8-4 9-10v-15a2 2 0 0 1 1-1 3 3 0 0 1 2-1 5 5 0 0 1 4 3 26 26 0 0 1 4 12 20 20 0 0 1-3 11c-5 7-14 12-23 12Zm-236-19a53 53 0 0 1-15-2 30 30 0 0 1-11-5 23 23 0 0 1-6-8 23 23 0 0 1-2-9 26 26 0 0 1 2-10 26 26 0 0 1 5-9 22 22 0 0 1 7-4 22 22 0 0 1 9-2c-2-7-4-13-3-19a25 25 0 0 1 4-13 22 22 0 0 1 4-4 23 23 0 0 1 5-3 25 25 0 0 1 11-3 26 26 0 0 1 7 1 23 23 0 0 1 7 4 22 22 0 0 1 9 13c7-9 15-13 23-13a21 21 0 0 1 13 5 24 24 0 0 1 8 15 21 21 0 0 1 0 8 20 20 0 0 1-4 8 39 39 0 0 1 14 7 21 21 0 0 1 7 10 19 19 0 0 1 1 6 21 21 0 0 1-1 5 25 25 0 0 1-5 10 26 26 0 0 1-8 6 22 22 0 0 1-10 3 20 20 0 0 1-7-2 23 23 0 0 1-7-4 3 3 0 0 1-1-4 3 3 0 0 1 2-2 2 2 0 0 1 1 0 35 35 0 0 0 10 2 22 22 0 0 0 6-1 14 14 0 0 0 6-3 14 14 0 0 0 4-6 10 10 0 0 0-1-8 14 14 0 0 0-6-4c-4-3-10-4-14-5h-1a4 4 0 0 1-3-2 6 6 0 0 1 0-5 2 2 0 0 1 0-1 8 8 0 0 1 3-3l5-12a12 12 0 0 0-6-12 12 12 0 0 0-5-1c-8 0-15 9-18 15l-1 1a5 5 0 0 1-4 2 7 7 0 0 1-4-2 7 7 0 0 1-3-3 37 37 0 0 0-6-12 20 20 0 0 0-5-4 13 13 0 0 0-7-2 15 15 0 0 0-6 2 12 12 0 0 0-5 6 17 17 0 0 0 0 8l5 15 1 1v1a5 5 0 0 1 0 4 7 7 0 0 1-2 3 2 2 0 0 1-2 1h-1a8 8 0 0 1-2 0 7 7 0 0 1-1 0c-4 0-9 1-14 4a13 13 0 0 0-6 12 13 13 0 0 0 3 6 13 13 0 0 0 4 3c3 2 7 2 12 2h10a5 5 0 0 1 4 2 7 7 0 0 1 2 4 8 8 0 0 1-1 5 6 6 0 0 1-5 2h-4Zm552-9a32 32 0 0 1-13-3 30 30 0 0 1-11-8 24 24 0 0 1-5-9 26 26 0 0 1 0-12 4 4 0 0 1 4-3 3 3 0 0 1 2 2 46 46 0 0 0 5 14c3 6 8 9 13 9a77 77 0 0 0 8-1 14 14 0 0 0 6-5 13 13 0 0 0 2-7c1-4-1-9-2-13v-1l-1-1a5 5 0 0 1 1-5 8 8 0 0 1 6-2 8 8 0 0 1 2 0 2 2 0 0 1 1 0 40 40 0 0 0 7 2l1 10a23 23 0 0 1-3-1 42 42 0 0 1 0 16 24 24 0 0 1-5 10c-4 5-11 8-18 8Zm-517-10a12 12 0 0 1-9-4 12 12 0 0 1-3-7 10 10 0 0 1-2-4 9 9 0 0 1 2-5 13 13 0 0 1 8-6 13 13 0 0 1 3-1 15 15 0 0 1 7 2 13 13 0 0 1 6 6 13 13 0 0 1 1 8 14 14 0 0 1-3 7 12 12 0 0 1-2 1 13 13 0 0 1-8 3Zm0-20a7 7 0 0 0-3 1 8 8 0 0 0-2 1 8 8 0 0 0-2 6l5 4a6 6 0 0 0 2 1c2 0 3-1 4-3l1-1c2-3 3-4 0-6-2-2-3-3-5-3Zm196 5a12 12 0 0 1-5-2 13 13 0 0 1-6-6 14 14 0 0 1-1-9 14 14 0 0 1 13-10 13 13 0 0 1 8 2 13 13 0 0 1 2 2 9 9 0 0 1 2 4 10 10 0 0 1 0 5 12 12 0 0 1-2 8 12 12 0 0 1-5 4 13 13 0 0 1-6 2Zm-1-21a4 4 0 0 0-3 1 14 14 0 0 0-2 4c-2 3-1 3 1 5l2 1a9 9 0 0 0 1 1 5 5 0 0 0 3 1 5 5 0 0 0 2-1c2-2 4-3 4-6-1-3-3-5-5-6a8 8 0 0 0-3 0Zm280 12a53 53 0 0 1-15-2 30 30 0 0 1-11-5 23 23 0 0 1-6-8 23 23 0 0 1-2-9 26 26 0 0 1 2-10 26 26 0 0 1 5-9 22 22 0 0 1 7-4 22 22 0 0 1 9-2c-2-7-4-13-3-19a25 25 0 0 1 4-13 22 22 0 0 1 4-4 23 23 0 0 1 5-3 25 25 0 0 1 11-3 26 26 0 0 1 7 1 23 23 0 0 1 7 4 22 22 0 0 1 9 13c7-9 15-13 23-13a21 21 0 0 1 4 0l1 11a11 11 0 0 0-4-1c-8 0-15 9-18 15h-1v1a5 5 0 0 1-4 2 7 7 0 0 1-4-2 7 7 0 0 1-3-3 37 37 0 0 0-6-12 20 20 0 0 0-5-4 13 13 0 0 0-7-2 15 15 0 0 0-6 2 12 12 0 0 0-5 6 17 17 0 0 0 0 8l5 15 1 1v1a5 5 0 0 1 0 4 7 7 0 0 1-2 3 2 2 0 0 1-2 1h-1a8 8 0 0 1-2 0 7 7 0 0 1-1 0c-4 0-9 1-14 4a13 13 0 0 0-6 12 13 13 0 0 0 3 6 13 13 0 0 0 4 3c3 2 7 2 12 2h10a5 5 0 0 1 4 2 7 7 0 0 1 2 4 8 8 0 0 1-1 5 6 6 0 0 1-5 2h-5Zm35-19a12 12 0 0 1-9-4 12 12 0 0 1-3-7 10 10 0 0 1-2-4 9 9 0 0 1 2-5 13 13 0 0 1 8-6 13 13 0 0 1 3-1 15 15 0 0 1 7 2 13 13 0 0 1 6 6 13 13 0 0 1 1 8 14 14 0 0 1-3 7 12 12 0 0 1-2 1 13 13 0 0 1-8 3Zm0-20a7 7 0 0 0-3 1 8 8 0 0 0-2 1 8 8 0 0 0-2 6l5 4a6 6 0 0 0 2 1c2 0 3-1 4-3l1-1c2-3 3-4 0-6-2-2-3-3-5-3Zm-135-6a26 26 0 0 1-7-1 24 24 0 0 1-6-3 22 22 0 0 1-9-12 42 42 0 0 1-12 11 24 24 0 0 1-12 3 21 21 0 0 1-8-2 25 25 0 0 1-7-4 32 32 0 0 1-9-16 28 28 0 0 1 1-16 24 24 0 0 1 4-7 26 26 0 0 1 7-6 4 4 0 0 1 2-1 4 4 0 0 1 3 2 2 2 0 0 1 0 3 46 46 0 0 0-7 13c-3 6-2 11 1 15a74 74 0 0 0 6 5 14 14 0 0 0 7 2c8 0 13-8 16-14l1-1a5 5 0 0 1 5-2 8 8 0 0 1 6 3 2 2 0 0 1 1 1 38 38 0 0 0 6 10c3 4 6 6 10 7v-1 1a12 12 0 0 0 2 0 15 15 0 0 0 6-2 12 12 0 0 0 5-6 17 17 0 0 0 0-8c-1-6-4-11-6-15v-1a5 5 0 0 1 0-6 8 8 0 0 1 7-3 7 7 0 0 1 1 0 34 34 0 0 0 7-1 22 22 0 0 0 6-3 12 12 0 0 0 5-11 12 12 0 0 0-2-5 12 12 0 0 0-4-3 24 24 0 0 0-10-2 80 80 0 0 0-10 0l-1 1a5 5 0 0 1-4-3 7 7 0 0 1-1-4 7 7 0 0 1 1-4 39 39 0 0 0 4-9 20 20 0 0 0 0-11 13 13 0 0 0-8-8 14 14 0 0 0-4-1 12 12 0 0 0-6 2 21 21 0 0 0-6 6l-6 12-1 2a5 5 0 0 1-5 3 7 7 0 0 1-2-1 2 2 0 0 1-2 0v-1a7 7 0 0 1-2-2c-3-3-9-8-16-8a13 13 0 0 0-9 4 12 12 0 0 0-3 8 17 17 0 0 0 2 7l10 13h1v1a5 5 0 0 1 2 3 6 6 0 0 1-1 3 8 8 0 0 1-7 4 6 6 0 0 1-4-1c-6-7-11-15-13-21a27 27 0 0 1-1-9 22 22 0 0 1 1-8 23 23 0 0 1 10-11 26 26 0 0 1 6-3 25 25 0 0 1 7-1 22 22 0 0 1 17 8c4-7 8-12 13-16a26 26 0 0 1 7-3 22 22 0 0 1 7-1 23 23 0 0 1 13 4 26 26 0 0 1 9 9 23 23 0 0 1 2 12 22 22 0 0 1-4 12 44 44 0 0 1 14 2 26 26 0 0 1 9 5 21 21 0 0 1 5 7 21 21 0 0 1 2 9 24 24 0 0 1-2 9 23 23 0 0 1-5 7 21 21 0 0 1-6 5 20 20 0 0 1-8 2h-1c3 6 4 13 4 19a25 25 0 0 1-4 13 22 22 0 0 1-4 4 23 23 0 0 1-5 4 25 25 0 0 1-11 2Zm165 7-2-1a5 5 0 0 1-4-4 8 8 0 0 1 4-8l1-1 1 14Zm-183-53a13 13 0 0 1-2 0 12 12 0 0 1-5-2 13 13 0 0 1-3-3 13 13 0 0 1-2-4 12 12 0 0 1-1-5 12 12 0 0 1 3-7 1 1 0 0 1 1 0 10 10 0 0 1 2-4 9 9 0 0 1 4-2 13 13 0 0 1 3 0 13 13 0 0 1 7 2 14 14 0 0 1 6 7 14 14 0 0 1-1 10 13 13 0 0 1-5 6 14 14 0 0 1-7 2Zm0-20a8 8 0 0 0-5 2v7a5 5 0 0 0 2 2 5 5 0 0 0 2 1 9 9 0 0 0 2 0h1c3 0 4-1 5-4a11 11 0 0 0 0-5l-4-3a8 8 0 0 0-3 0Zm-397 17a23 23 0 0 1-17-8 27 27 0 0 1-6-11 49 49 0 0 1-1-18 21 21 0 0 1-6 1 20 20 0 0 1-7-1 22 22 0 0 1-6-4 24 24 0 0 1-8-12 21 21 0 0 1 0-8 21 21 0 0 1 3-9 26 26 0 0 1 7-7 45 45 0 0 1 13-6 22 22 0 0 1-8-10 23 23 0 0 1 0-12 26 26 0 0 1 5-12 23 23 0 0 1 11-7 22 22 0 0 1 7-1 28 28 0 0 1 12 3 49 49 0 0 1 13 10 22 22 0 0 1 4-6 22 22 0 0 1 5-4 25 25 0 0 1 12-3 26 26 0 0 1 12 3 22 22 0 0 1 9 8 23 23 0 0 1 3 7 30 30 0 0 1 0 8c0 7-3 14-7 22a6 6 0 0 1-5 3 8 8 0 0 1-7-3 5 5 0 0 1 0-6l1-1c2-4 5-9 6-15a17 17 0 0 0 0-8 12 12 0 0 0-5-6 14 14 0 0 0-6-2 15 15 0 0 0-10 4 32 32 0 0 0-7 8 7 7 0 0 1-1 3v1a2 2 0 0 1-2 1 7 7 0 0 1-4 1 5 5 0 0 1-4-1v-1c-5-6-12-15-21-15a12 12 0 0 0-6 2 13 13 0 0 0-5 10 20 20 0 0 0 3 10 39 39 0 0 0 6 8 7 7 0 0 1 2 3 7 7 0 0 1 0 4 5 5 0 0 1-3 4h-2l-14 4a15 15 0 0 0-6 5 11 11 0 0 0-2 7 12 12 0 0 0 6 9 19 19 0 0 0 9 2 34 34 0 0 0 7 0 7 7 0 0 1 4-1 8 8 0 0 1 5 2 5 5 0 0 1 1 4v1l-2 17a17 17 0 0 0 3 7 12 12 0 0 0 7 5 17 17 0 0 0 2 0 13 13 0 0 0 5-1h1c3-1 6-4 8-9a38 38 0 0 0 3-11 2 2 0 0 1 0-1 8 8 0 0 1 3-4 6 6 0 0 1 4-2 5 5 0 0 1 3 1l1 1a61 61 0 0 0 8 7l9 3a11 11 0 0 0 4-1 15 15 0 0 0 5-3 72 72 0 0 0 4-7c2-5 1-10-3-15a46 46 0 0 0-11-11 2 2 0 0 1 0-2 4 4 0 0 1 3-3 5 5 0 0 1 2 0 26 26 0 0 1 9 5 24 24 0 0 1 6 7 30 30 0 0 1 4 18 30 30 0 0 1-7 16 21 21 0 0 1-16 8c-7 0-13-3-21-8a22 22 0 0 1-2 10 22 22 0 0 1-5 7 25 25 0 0 1-8 4 26 26 0 0 1-9 2Zm9-51a14 14 0 0 1-6-1 13 13 0 0 1-5-4 14 14 0 0 1-3-8 14 14 0 0 1 3-9 13 13 0 0 1 7-4 13 13 0 0 1 2-1h1a9 9 0 0 1 7 4 1 1 0 0 1 0 1 12 12 0 0 1 5 5 12 12 0 0 1 1 5 13 13 0 0 1-1 4 13 13 0 0 1-2 4 12 12 0 0 1-4 3 13 13 0 0 1-5 1Zm-1-19a7 7 0 0 0-4 1l-3 4a11 11 0 0 0 1 5c1 2 2 2 3 2a12 12 0 0 0 2 0h2a8 8 0 0 0 1-1 4 4 0 0 0 4-4l-2-7a10 10 0 0 0-4 0Zm456-41a26 26 0 0 1-7-1 23 23 0 0 1-6-3 22 22 0 0 1-9-12 42 42 0 0 1-12 11 24 24 0 0 1-12 3 22 22 0 0 1-13-5 30 30 0 0 1-9-11 31 31 0 0 1-3-15 26 26 0 0 1 2-7 24 24 0 0 1 4-7l10 1a37 37 0 0 0-6 12c-1 5-1 9 2 13a72 72 0 0 0 6 5 14 14 0 0 0 7 2c8 0 13-8 16-14l1-1a5 5 0 0 1 5-2 8 8 0 0 1 6 3 2 2 0 0 1 1 1 38 38 0 0 0 6 10c3 4 6 6 10 7v-1 1a12 12 0 0 0 2 0 15 15 0 0 0 6-2 12 12 0 0 0 5-5 15 15 0 0 0 0-7c0-5-2-11-4-15a148 148 0 0 1 15 5 36 36 0 0 1 1 15 23 23 0 0 1-5 10 22 22 0 0 1-8 7 26 26 0 0 1-11 2Z" opacity=".2"/></svg>